<?xml version="1.0" encoding="UTF-8"?>
<svg version="1.1" xmlns="http://www.w3.org/2000/svg" width="82" height="57">
<path d="M0 0 C1.93719378 -0.05406122 3.87481921 -0.09282025 5.8125 -0.125 C6.89144531 -0.14820313 7.97039063 -0.17140625 9.08203125 -0.1953125 C12 0 12 0 15 2 C15.29296875 4.6015625 15.29296875 4.6015625 15.1875 7.625 C15.16042969 8.62789062 15.13335938 9.63078125 15.10546875 10.6640625 C15.07066406 11.43492188 15.03585938 12.20578125 15 13 C15.969375 12.79375 16.93875 12.5875 17.9375 12.375 C23.60409204 11.57041289 28.97153816 12.73784597 33.8125 15.75 C34.534375 16.1625 35.25625 16.575 36 17 C38.13252737 16.39238047 38.13252737 16.39238047 40 15 C45.18151506 11.8041449 51.13050434 12.54568198 57 13 C62.40770277 14.67147177 65.97187623 18.29399782 69 23 C69.875 26.4375 69.875 26.4375 70 29 C66.49807819 30.75096091 62.55764936 30.21634019 58.75 29.6875 C57 29 57 29 55.6875 27.4375 C53.92075878 25.65892277 53.92075878 25.65892277 50.5 25.625 C47.1655006 25.76164954 47.1655006 25.76164954 45.125 27 C43.32756466 30.1954406 43.29797286 33.36473107 43 37 C46.09435898 39.34421135 47.68437322 40 51.625 40 C55.14908879 39.32876949 55.14908879 39.32876949 56.8125 36.5 C57.204375 35.675 57.59625 34.85 58 34 C61.01868434 32.49065783 63.67297229 32.82489328 67 33 C68.485 33.99 68.485 33.99 70 35 C69.46152629 40.65397398 67.81049021 44.67033363 63.3503418 48.36743164 C57.94336971 52.04406156 53.82649154 52.67197342 47.375 52.375 C46.55515625 52.36082031 45.7353125 52.34664062 44.890625 52.33203125 C41.3770421 52.24729854 38.0709857 52.01223891 34.6015625 51.4140625 C31.89602555 50.77831826 31.89602555 50.77831826 29 52 C26.56637528 52.17241708 24.12679404 52.26665768 21.6875 52.3125 C20.39199219 52.34988281 19.09648437 52.38726562 17.76171875 52.42578125 C12.86373581 51.87138858 9.73269967 50.13180465 6.609375 46.2890625 C4.71059278 42.61232966 3.03185212 39.03360373 2 35 C2.33 34.34 2.66 33.68 3 33 C4.60407328 32.97291433 6.2082785 32.95356517 7.8125 32.9375 C9.15248047 32.92009766 9.15248047 32.92009766 10.51953125 32.90234375 C13 33 13 33 16 34 C16.78375 33.79375 17.5675 33.5875 18.375 33.375 C21.83704479 32.88042217 23.22188511 34.01563222 26 36 C25.67 36.99 25.34 37.98 25 39 C23.515 39.495 23.515 39.495 22 40 C25.93075644 39.42547254 25.93075644 39.42547254 29 37 C29.24253813 34.78927023 29.24253813 34.78927023 29.125 32.375 C29.10695313 31.55773437 29.08890625 30.74046875 29.0703125 29.8984375 C29.04710938 29.27195312 29.02390625 28.64546875 29 28 C24.7079475 25.59952321 21.87827664 25.53540222 17 26 C16.32710937 26.99386719 16.32710937 26.99386719 15.640625 28.0078125 C14 30 14 30 11.08203125 30.390625 C10.00308594 30.34421875 8.92414062 30.2978125 7.8125 30.25 C6.72582031 30.21390625 5.63914062 30.1778125 4.51953125 30.140625 C3.68808594 30.09421875 2.85664062 30.0478125 2 30 C-1.6853329 21.77541561 -2.88618428 8.65855283 0 0 Z " fill="#D22C37" transform="translate(1,3)"/>
<path d="M0 0 C1.6415049 3.2830098 0.51888624 6.42545033 0 10 C3.09435898 12.34421135 4.68437322 13 8.625 13 C12.14908879 12.32876949 12.14908879 12.32876949 13.8125 9.5 C14.4003125 8.2625 14.4003125 8.2625 15 7 C18.01868434 5.49065783 20.67297229 5.82489328 24 6 C24.99 6.66 25.98 7.32 27 8 C26.46152629 13.65397398 24.81049021 17.67033363 20.3503418 21.36743164 C14.94336971 25.04406156 10.82649154 25.67197342 4.375 25.375 C3.55515625 25.36082031 2.7353125 25.34664062 1.890625 25.33203125 C-1.6229579 25.24729854 -4.9290143 25.01223891 -8.3984375 24.4140625 C-11.10397445 23.77831826 -11.10397445 23.77831826 -14 25 C-16.43362472 25.17241708 -18.87320596 25.26665768 -21.3125 25.3125 C-22.60800781 25.34988281 -23.90351563 25.38726562 -25.23828125 25.42578125 C-30.13626419 24.87138858 -33.26730033 23.13180465 -36.390625 19.2890625 C-38.28940722 15.61232966 -39.96814788 12.03360373 -41 8 C-40.67 7.34 -40.34 6.68 -40 6 C-38.39592672 5.97291433 -36.7917215 5.95356517 -35.1875 5.9375 C-34.29417969 5.92589844 -33.40085937 5.91429687 -32.48046875 5.90234375 C-30 6 -30 6 -27 7 C-26.21625 6.79375 -25.4325 6.5875 -24.625 6.375 C-21.16295521 5.88042217 -19.77811489 7.01563222 -17 9 C-17.33 9.99 -17.66 10.98 -18 12 C-18.99 12.33 -19.98 12.66 -21 13 C-17.06924356 12.42547254 -17.06924356 12.42547254 -14 10 C-13.53993654 7.79749008 -13.53993654 7.79749008 -13.375 5.375 C-13.30023437 4.55773438 -13.22546875 3.74046875 -13.1484375 2.8984375 C-13.09945313 2.27195313 -13.05046875 1.64546875 -13 1 C-11 3 -11 3 -10.625 5.8125 C-11.0824017 9.70041449 -12.30492197 11.22565497 -15 14 C-18.21451269 15.60725635 -21.43612536 15.05748185 -25 15 C-25 15.66 -25 16.32 -25 17 C-24.15695313 16.98839844 -23.31390625 16.97679688 -22.4453125 16.96484375 C-21.34960938 16.95582031 -20.25390625 16.94679688 -19.125 16.9375 C-17.48917969 16.92009766 -17.48917969 16.92009766 -15.8203125 16.90234375 C-13 17 -13 17 -11 18 C-10.67 17.34 -10.34 16.68 -10 16 C-9.01 16.99 -8.02 17.98 -7 19 C-3.5874407 13.93620232 -2.51639859 10.23878004 -2.2734375 4.13671875 C-2 2 -2 2 0 0 Z " fill="#E5222D" transform="translate(44,30)"/>
<path d="M0 0 C1.93719378 -0.05406122 3.87481921 -0.09282025 5.8125 -0.125 C6.89144531 -0.14820313 7.97039063 -0.17140625 9.08203125 -0.1953125 C12 0 12 0 15 2 C15.29296875 4.6015625 15.29296875 4.6015625 15.1875 7.625 C15.16042969 8.62789062 15.13335938 9.63078125 15.10546875 10.6640625 C15.07066406 11.43492188 15.03585938 12.20578125 15 13 C15.969375 12.79375 16.93875 12.5875 17.9375 12.375 C22.52772745 11.68834712 26.58126458 12.78760321 31 14 C27.8703842 14.93160656 25.13169204 15.07777175 21.875 15 C18.29616131 14.84683513 18.29616131 14.84683513 15 16 C15.01160156 16.92683594 15.02320312 17.85367187 15.03515625 18.80859375 C15.04417969 20.00613281 15.05320312 21.20367188 15.0625 22.4375 C15.07410156 23.63246094 15.08570312 24.82742187 15.09765625 26.05859375 C15 29 15 29 14 30 C11.98035801 30.07244053 9.95832876 30.08377188 7.9375 30.0625 C6.28041016 30.04896484 6.28041016 30.04896484 4.58984375 30.03515625 C3.73519531 30.02355469 2.88054687 30.01195313 2 30 C-1.6853329 21.77541561 -2.88618428 8.65855283 0 0 Z " fill="#F4E637" transform="translate(1,3)"/>
<path d="M0 0 C2.97 0 5.94 0 9 0 C9.42656834 4.94819269 9.60487682 7.05710378 6.875 11.3125 C1.14195025 16.6716552 -3.44873518 17.53373321 -11.140625 17.37109375 C-15.11574591 16.85519691 -17.0371273 15.63366462 -20 13 C-19.690625 12.236875 -19.38125 11.47375 -19.0625 10.6875 C-18.32106407 8.81210323 -17.63771783 6.91315348 -17 5 C-16.43410156 5.15984375 -15.86820313 5.3196875 -15.28515625 5.484375 C-12.94715227 6.01192462 -10.83167451 6.20138732 -8.4375 6.25 C-7.67308594 6.27578125 -6.90867187 6.3015625 -6.12109375 6.328125 C-3.44423293 5.91402498 -2.6324598 5.1236863 -1 3 C-0.67 2.01 -0.34 1.02 0 0 Z " fill="#0D9451" transform="translate(60,38)"/>
<path d="M0 0 C4.5470505 3.43801379 8.00738273 6.75668215 9.4375 12.375 C9.47875 13.220625 9.52 14.06625 9.5625 14.9375 C6.06057819 16.68846091 2.12014936 16.15384019 -1.6875 15.625 C-3.4375 14.9375 -3.4375 14.9375 -4.75390625 13.40625 C-6.97431485 11.4691882 -8.22653037 11.62397958 -11.125 11.75 C-12.33736328 11.79060547 -12.33736328 11.79060547 -13.57421875 11.83203125 C-14.18910156 11.86683594 -14.80398437 11.90164062 -15.4375 11.9375 C-14.15234375 10.4296875 -14.15234375 10.4296875 -12.4375 8.9375 C-8.89223868 9.06641859 -6.38417248 9.18016202 -3.5625 11.4375 C-0.2095638 13.80427849 3.54598639 13.68861347 7.5625 13.9375 C5.39649725 8.00949247 3.2817166 5.14354496 -2.26171875 1.85546875 C-6.46143613 0.08359517 -10.97647237 0.38795312 -15.4375 0.9375 C-17.85329903 2.00957146 -19.36843842 3.23052419 -21.4375 4.9375 C-22.4275 5.2675 -23.4175 5.5975 -24.4375 5.9375 C-25.0975 5.6075 -25.7575 5.2775 -26.4375 4.9375 C-26.4375 5.5975 -26.4375 6.2575 -26.4375 6.9375 C-28.0420556 6.79601011 -29.64613767 6.64914314 -31.25 6.5 C-32.14332031 6.41878906 -33.03664063 6.33757813 -33.95703125 6.25390625 C-36.4375 5.9375 -36.4375 5.9375 -39.4375 4.9375 C-39.1075 4.2775 -38.7775 3.6175 -38.4375 2.9375 C-40.7475 2.9375 -43.0575 2.9375 -45.4375 2.9375 C-45.1075 3.9275 -44.7775 4.9175 -44.4375 5.9375 C-43.73882812 5.96328125 -43.04015625 5.9890625 -42.3203125 6.015625 C-41.41023438 6.07234375 -40.50015625 6.1290625 -39.5625 6.1875 C-38.20511719 6.25710937 -38.20511719 6.25710937 -36.8203125 6.328125 C-34.4375 6.9375 -34.4375 6.9375 -33.2421875 8.921875 C-32.97664063 9.58703125 -32.71109375 10.2521875 -32.4375 10.9375 C-31.7775 11.2675 -31.1175 11.5975 -30.4375 11.9375 C-30.7675 12.5975 -31.0975 13.2575 -31.4375 13.9375 C-31.9325 13.6075 -32.4275 13.2775 -32.9375 12.9375 C-37.37323202 11.16320719 -41.91008828 11.42836276 -46.4375 12.9375 C-46.51836147 11.14656809 -46.57662702 9.35460372 -46.625 7.5625 C-46.65980469 6.56476562 -46.69460937 5.56703125 -46.73046875 4.5390625 C-46.58544922 3.25128906 -46.58544922 3.25128906 -46.4375 1.9375 C-42.16708952 -0.90944032 -38.44887695 -0.45091979 -33.4375 -0.0625 C-30.25039384 0.70857407 -27.26504542 1.63866415 -24.1875 2.75 C-23.61 2.811875 -23.0325 2.87375 -22.4375 2.9375 C-20.83338754 1.58344139 -20.83338754 1.58344139 -19.4375 -0.0625 C-13.34297543 -2.09400819 -6.10455149 -1.88686137 0 0 Z " fill="#E78B8E" transform="translate(61.4375,17.0625)"/>
<path d="M0 0 C1.93719378 -0.05406122 3.87481921 -0.09282025 5.8125 -0.125 C6.89144531 -0.14820313 7.97039063 -0.17140625 9.08203125 -0.1953125 C12 0 12 0 15 2 C15.29296875 4.6015625 15.29296875 4.6015625 15.1875 7.625 C15.16042969 8.62789062 15.13335938 9.63078125 15.10546875 10.6640625 C15.07066406 11.43492188 15.03585938 12.20578125 15 13 C15.969375 12.79375 16.93875 12.5875 17.9375 12.375 C22.52772745 11.68834712 26.58126458 12.78760321 31 14 C27.24600202 15.2039337 23.66782588 15.09877617 19.75 15.0625 C18.48671875 15.05347656 17.2234375 15.04445313 15.921875 15.03515625 C14.95765625 15.02355469 13.9934375 15.01195312 13 15 C13 10.71 13 6.42 13 2 C9.7 2 6.4 2 3 2 C3 10.91 3 19.82 3 29 C6.63 29 10.26 29 14 29 C14 29.33 14 29.66 14 30 C10.04 30 6.08 30 2 30 C-1.39062729 21.52343177 -2.95947389 8.87842167 0 0 Z " fill="#FDFEE2" transform="translate(1,3)"/>
<path d="M0 0 C3.3 0 6.6 0 10 0 C10 1.65 10 3.3 10 5 C9 6 9 6 6.93359375 6.09765625 C6.10988281 6.08605469 5.28617188 6.07445312 4.4375 6.0625 C3.19806641 6.04896484 3.19806641 6.04896484 1.93359375 6.03515625 C1.29550781 6.02355469 0.65742187 6.01195312 0 6 C0 6.66 0 7.32 0 8 C-1.98 8.33 -3.96 8.66 -6 9 C-6.061875 9.928125 -6.12375 10.85625 -6.1875 11.8125 C-7 15 -7 15 -9.5625 16.875 C-10.7690625 17.431875 -10.7690625 17.431875 -12 18 C-13.03713245 13.54033047 -12.95103969 11.13161346 -11 7 C-11 6.34 -11 5.68 -11 5 C-9.35 4.67 -7.7 4.34 -6 4 C-6 3.34 -6 2.68 -6 2 C-5.38125 2.185625 -4.7625 2.37125 -4.125 2.5625 C-1.95839822 3.23686176 -1.95839822 3.23686176 0 2 C0 1.34 0 0.68 0 0 Z M-13 18 C-12.67 18 -12.34 18 -12 18 C-12 20.31 -12 22.62 -12 25 C-12.99 25.495 -12.99 25.495 -14 26 C-13.67 23.36 -13.34 20.72 -13 18 Z " fill="#E5202B" transform="translate(48,19)"/>
<path d="M0 0 C2.9375 2.1875 2.9375 2.1875 5 5 C5 7.95659783 4.45504121 9.36294231 2.75 11.75 C0.4187538 13.41517586 -1.13138875 13.86339946 -4 14 C-6.75 13 -6.75 13 -9 11 C-10.0625 7.5625 -10.0625 7.5625 -10 4 C-7.35056658 -0.13311614 -4.75603111 -0.87355673 0 0 Z M-3 4 C-2 6 -2 6 -2 6 Z M-7 6 C-6 8 -6 8 -6 8 Z M1 6 C0.67 6.66 0.34 7.32 0 8 C0.66 8 1.32 8 2 8 C1.67 7.34 1.34 6.68 1 6 Z M-3 8 C-3.33 8.99 -3.66 9.98 -4 11 C-3.01 10.67 -2.02 10.34 -1 10 C-1.66 9.34 -2.32 8.68 -3 8 Z " fill="#A4A4A4" transform="translate(75,4)"/>
<path d="M0 0 C1.6415049 3.2830098 0.51888624 6.42545033 0 10 C3.09435898 12.34421135 4.68437322 13 8.625 13 C12.14908879 12.32876949 12.14908879 12.32876949 13.8125 9.5 C14.204375 8.675 14.59625 7.85 15 7 C18.01868434 5.49065783 20.67297229 5.82489328 24 6 C24.99 6.66 25.98 7.32 27 8 C26.67 9.98 26.34 11.96 26 14 C25.67 14 25.34 14 25 14 C25 12.02 25 10.04 25 8 C22.03 8 19.06 8 16 8 C15.67 9.32 15.34 10.64 15 12 C13.38856172 14.16980899 12.56274426 14.90361839 9.87890625 15.36328125 C8.73228516 15.33814453 8.73228516 15.33814453 7.5625 15.3125 C6.80066406 15.30863281 6.03882812 15.30476563 5.25390625 15.30078125 C2.80470873 14.9739386 1.13299083 14.21954601 -1 13 C-1.70074844 16.153368 -2 18.72724974 -2 22 C-0.07977297 23.77409808 -0.07977297 23.77409808 2 25 C-2.82360189 25.19294408 -6.49646738 24.75747614 -11 23 C-10.59007812 22.54109375 -10.18015625 22.0821875 -9.7578125 21.609375 C-9.21898437 20.99578125 -8.68015625 20.3821875 -8.125 19.75 C-7.59132812 19.14671875 -7.05765625 18.5434375 -6.5078125 17.921875 C-3.02112718 13.47770615 -2.67133829 9.76205014 -2.34375 4.2421875 C-2 2 -2 2 0 0 Z " fill="#C9EAD6" transform="translate(44,30)"/>
<path d="M0 0 C0.99 0.33 1.98 0.66 3 1 C2.360625 1.45375 1.72125 1.9075 1.0625 2.375 C-1.23694407 5.30156518 -1.26121939 6.1693002 -1.4375 9.75 C-1.74707607 15.24090187 -3.7276659 18.67713798 -7 23 C-7.33 22.01 -7.66 21.02 -8 20 C-8.69480469 20.17402344 -9.38960937 20.34804688 -10.10546875 20.52734375 C-13.32656869 21.05332633 -16.06909262 20.88327655 -19.3125 20.5625 C-20.38113281 20.46066406 -21.44976563 20.35882813 -22.55078125 20.25390625 C-23.35902344 20.17011719 -24.16726562 20.08632813 -25 20 C-25 19.34 -25 18.68 -25 18 C-22.52163716 17.63913128 -20.04260213 17.28601843 -17.5625 16.9375 C-16.85544922 16.83373047 -16.14839844 16.72996094 -15.41992188 16.62304688 C-13.61864093 16.37310837 -11.80940959 16.18198686 -10 16 C-9.67 16.33 -9.34 16.66 -9 17 C-8.9071875 15.453125 -8.9071875 15.453125 -8.8125 13.875 C-7.80701793 9.07962395 -6.24386153 7.56824768 -3 4 C-2.67 3.01 -2.34 2.02 -2 1 C-1.34 0.67 -0.68 0.34 0 0 Z " fill="#E02429" transform="translate(44,27)"/>
<path d="M0 0 C2 2 2 2 2.375 4.8125 C1.9175983 8.70041449 0.69507803 10.22565497 -2 13 C-5.21758324 14.60879162 -8.52085395 14.61201039 -12 14 C-15 11.625 -15 11.625 -17 9 C-17 8.34 -17 7.68 -17 7 C-19.97 7 -22.94 7 -26 7 C-26.33 8.32 -26.66 9.64 -27 11 C-28.125 7.25 -28.125 7.25 -27 5 C-25.39592672 4.97291433 -23.7917215 4.95356517 -22.1875 4.9375 C-21.29417969 4.92589844 -20.40085937 4.91429687 -19.48046875 4.90234375 C-17 5 -17 5 -14 6 C-13.21625 5.79375 -12.4325 5.5875 -11.625 5.375 C-8.16295521 4.88042217 -6.77811489 6.01563222 -4 8 C-4.33 8.99 -4.66 9.98 -5 11 C-5.99 11.33 -6.98 11.66 -8 12 C-4.06924356 11.42547254 -4.06924356 11.42547254 -1 9 C-0.53993654 6.79749008 -0.53993654 6.79749008 -0.375 4.375 C-0.30023437 3.55773438 -0.22546875 2.74046875 -0.1484375 1.8984375 C-0.09945313 1.27195313 -0.05046875 0.64546875 0 0 Z " fill="#F9EBEB" transform="translate(31,31)"/>
<path d="M0 0 C0.33 0 0.66 0 1 0 C1 1.65 1 3.3 1 5 C1.99 5 2.98 5 4 5 C4.33 6.32 4.66 7.64 5 9 C6.32 8.67 7.64 8.34 9 8 C9.33 9.32 9.66 10.64 10 12 C11.65 12.33 13.3 12.66 15 13 C15 13.66 15 14.32 15 15 C16.98 15 18.96 15 21 15 C21 14.34 21 13.68 21 13 C25.455 12.505 25.455 12.505 30 12 C29.34 13.32 28.68 14.64 28 16 C24.43559582 17.18813473 21.44525218 17.24187953 17.6875 17.3125 C16.39199219 17.34988281 15.09648437 17.38726562 13.76171875 17.42578125 C8.8218607 16.86664882 5.76660728 15.06891441 2.5390625 11.2890625 C0.37133233 7.34268193 -0.43723456 4.48165421 0 0 Z " fill="#D16669" transform="translate(5,38)"/>
<path d="M0 0 C1.65 0 3.3 0 5 0 C6.16009247 3.48027742 6.20416521 6.33321643 6.25 10 C6.28867188 11.85625 6.28867188 11.85625 6.328125 13.75 C6 17 6 17 4.609375 18.9375 C3 20 3 20 1 20 C-0.05619003 15.71702469 -0.11702092 11.57014354 -0.0625 7.1875 C-0.05798828 6.49462891 -0.05347656 5.80175781 -0.04882812 5.08789062 C-0.03713156 3.39188932 -0.01919924 1.69593297 0 0 Z " fill="#FBEF04" transform="translate(7,8)"/>
<path d="M0 0 C5.35913191 -0.43927311 5.35913191 -0.43927311 8 0 C9.875 2.4375 9.875 2.4375 11 5 C11.66 5.33 12.32 5.66 13 6 C13 6.66 13 7.32 13 8 C11.68 8 10.36 8 9 8 C9.33 8.99 9.66 9.98 10 11 C9.34 11 8.68 11 8 11 C8 10.01 8 9.02 8 8 C6.68 8.33 5.36 8.66 4 9 C3.67 7.68 3.34 6.36 3 5 C2.01 5 1.02 5 0 5 C0 3.35 0 1.7 0 0 Z " fill="#E11F2C" transform="translate(6,38)"/>
<path d="M0 0 C3.63 0.66 7.26 1.32 11 2 C11 2.33 11 2.66 11 3 C9.88625 3.103125 8.7725 3.20625 7.625 3.3125 C6.42875 3.539375 5.2325 3.76625 4 4 C3.01 5.485 3.01 5.485 2 7 C2.33 7.66 2.66 8.32 3 9 C6.27555608 9.47001033 6.27555608 9.47001033 10.0625 9.625 C11.99802734 9.73714844 11.99802734 9.73714844 13.97265625 9.8515625 C15.47119141 9.92503906 15.47119141 9.92503906 17 10 C14.34500624 12.65499376 12.95036703 12.32897553 9.25 12.375 C3.81500503 12.30967554 1.03796458 11.58930185 -3 8 C-2.690625 7.236875 -2.38125 6.47375 -2.0625 5.6875 C-1.32106407 3.81210323 -0.63771783 1.91315348 0 0 Z " fill="#349C6A" transform="translate(43,43)"/>
<path d="M0 0 C0.66 1.32 1.32 2.64 2 4 C4.35829001 4.5531678 4.35829001 4.5531678 7 4.5 C9.6875 4.53125 9.6875 4.53125 12 5 C13.1875 6.96875 13.1875 6.96875 14 9 C14.66 9.33 15.32 9.66 16 10 C15.67 10.66 15.34 11.32 15 12 C14.505 11.67 14.01 11.34 13.5 11 C9.06426798 9.22570719 4.52741172 9.49086276 0 11 C0 7.37 0 3.74 0 0 Z " fill="#C06058" transform="translate(15,19)"/>
<path d="M0 0 C2.31 0 4.62 0 7 0 C7 0.66 7 1.32 7 2 C7.61488281 1.97679688 8.22976562 1.95359375 8.86328125 1.9296875 C9.67152344 1.91164063 10.47976562 1.89359375 11.3125 1.875 C12.11300781 1.85179688 12.91351563 1.82859375 13.73828125 1.8046875 C16 2 16 2 19 4 C19.33 3.34 19.66 2.68 20 2 C20 3.65 20 5.3 20 7 C19.34 7 18.68 7 18 7 C18 7.99 18 8.98 18 10 C17.34 10 16.68 10 16 10 C15.80664062 9.36578125 15.61328125 8.7315625 15.4140625 8.078125 C14.1088608 5.67611298 14.1088608 5.67611298 10.9609375 5.171875 C9.77757812 5.03265625 8.59421875 4.8934375 7.375 4.75 C6.18648437 4.60046875 4.99796875 4.4509375 3.7734375 4.296875 C2.85820312 4.19890625 1.94296875 4.1009375 1 4 C0.67 2.68 0.34 1.36 0 0 Z " fill="#D52425" transform="translate(16,20)"/>
<path d="M0 0 C1.27875 0.103125 2.5575 0.20625 3.875 0.3125 C4.95394531 0.39951172 4.95394531 0.39951172 6.0546875 0.48828125 C8 1 8 1 10 4 C10 5.32 10 6.64 10 8 C7.03 8 4.06 8 1 8 C0.02391783 5.07175348 -0.08226668 3.04386724 0 0 Z " fill="#E31F2C" transform="translate(59,23)"/>
<path d="M0 0 C0.66 1.98 1.32 3.96 2 6 C1.01 6.495 1.01 6.495 0 7 C-0.33 6.01 -0.66 5.02 -1 4 C-3.01508358 3.26676204 -3.01508358 3.26676204 -5 3 C-5 3.928125 -5 4.85625 -5 5.8125 C-5 7.875 -5 9.9375 -5 12 C-5.99 12 -6.98 12 -8 12 C-10.16551116 8.75173326 -10.55156953 7.76905843 -10 4 C-7.11625216 -0.103795 -4.87056294 -0.44277845 0 0 Z M-7 6 C-6 8 -6 8 -6 8 Z " fill="#C1C1C1" transform="translate(75,4)"/>
<path d="M0 0 C2.64 0.66 5.28 1.32 8 2 C8.33 3.32 8.66 4.64 9 6 C6.24921116 6.91692961 4.64051087 7.10886083 1.8125 7.0625 C-0.0746875 7.0315625 -0.0746875 7.0315625 -2 7 C-2.33 6.01 -2.66 5.02 -3 4 C-1.5625 1.8125 -1.5625 1.8125 0 0 Z " fill="#04994A" transform="translate(47,46)"/>
<path d="M0 0 C1.81242052 -0.02687279 3.62495233 -0.04633715 5.4375 -0.0625 C6.44683594 -0.07410156 7.45617187 -0.08570313 8.49609375 -0.09765625 C11 0 11 0 12 1 C12.07226502 2.85287502 12.0838122 4.70833878 12.0625 6.5625 C12.05347656 7.57441406 12.04445313 8.58632812 12.03515625 9.62890625 C12.02355469 10.41136719 12.01195312 11.19382812 12 12 C12.969375 11.79375 13.93875 11.5875 14.9375 11.375 C19.52772745 10.68834712 23.58126458 11.78760321 28 13 C24.24600202 14.2039337 20.66782588 14.09877617 16.75 14.0625 C15.48671875 14.05347656 14.2234375 14.04445313 12.921875 14.03515625 C11.95765625 14.02355469 10.9934375 14.01195312 10 14 C10 9.71 10 5.42 10 1 C6.7 1 3.4 1 0 1 C0 0.67 0 0.34 0 0 Z " fill="#FDEBB3" transform="translate(4,4)"/>
<path d="M0 0 C0.99 0.33 1.98 0.66 3 1 C2.360625 1.45375 1.72125 1.9075 1.0625 2.375 C-1.23694407 5.30156518 -1.26121939 6.1693002 -1.4375 9.75 C-1.74707607 15.24090187 -3.7276659 18.67713798 -7 23 C-7.33 21.68 -7.66 20.36 -8 19 C-7.01 18.67 -6.02 18.34 -5 18 C-5.02320313 17.15695313 -5.04640625 16.31390625 -5.0703125 15.4453125 C-5.08835938 14.34960938 -5.10640625 13.25390625 -5.125 12.125 C-5.14820313 11.03445312 -5.17140625 9.94390625 -5.1953125 8.8203125 C-5 6 -5 6 -3 4 C-2.67 3.01 -2.34 2.02 -2 1 C-1.34 0.67 -0.68 0.34 0 0 Z " fill="#D43544" transform="translate(44,27)"/>
<path d="M0 0 C2.97 0 5.94 0 9 0 C9.66964286 7.76785714 9.66964286 7.76785714 6.75 11.4375 C3.17958783 14.76447498 3.17958783 14.76447498 0 15 C-0.33 14.01 -0.66 13.02 -1 12 C-0.030625 11.690625 0.93875 11.38125 1.9375 11.0625 C4.84065792 10.30476658 4.84065792 10.30476658 6 9 C6.04092937 6.66702567 6.04241723 4.33294775 6 2 C4.35 1.67 2.7 1.34 1 1 C0.67 1.66 0.34 2.32 0 3 C0 2.01 0 1.02 0 0 Z " fill="#389667" transform="translate(60,38)"/>
<path d="M0 0 C0 0.33 0 0.66 0 1 C-2.64 1.33 -5.28 1.66 -8 2 C-8.33 3.32 -8.66 4.64 -9 6 C-11.16874252 5.49396008 -12.99967627 5.00016187 -15 4 C-15 4.66 -15 5.32 -15 6 C-16.98 6.33 -18.96 6.66 -21 7 C-19.71170846 4.42341692 -18.58096973 4.21879126 -16 3 C-15.319375 2.46375 -14.63875 1.9275 -13.9375 1.375 C-9.41610017 -0.74139992 -4.91308393 -0.23231745 0 0 Z " fill="#CC373F" transform="translate(57,17)"/>
<path d="M0 0 C2 2 2 2 2.375 4.8125 C1.9175983 8.70041449 0.69507803 10.22565497 -2 13 C-5.17024765 14.58512383 -8.54667028 14.42372144 -12 14 C-14 12.5 -14 12.5 -15 11 C-12.28915401 10.92254726 -10.07043034 10.98110406 -7.4375 11.6875 C-4.98263386 12.1996146 -4.98263386 12.1996146 -2.75 11.125 C-0.029682 7.82175671 -0.17475208 4.16783716 0 0 Z " fill="#F9CDCC" transform="translate(31,31)"/>
<path d="M0 0 C1.65 0 3.3 0 5 0 C5.33 0.66 5.66 1.32 6 2 C5.06553465 4.03144641 4.06775224 6.03533587 3 8 C1.68 7.67 0.36 7.34 -1 7 C-0.67 4.69 -0.34 2.38 0 0 Z " fill="#04994D" transform="translate(61,39)"/>
<path d="M0 0 C1.42907825 2.85815651 0.65480668 5.04301326 0.15625 8.125 C-0.17118789 10.09091334 -0.17118789 10.09091334 1 12 C0.34 12 -0.32 12 -1 12 C-1.12375 12.969375 -1.2475 13.93875 -1.375 14.9375 C-1.58125 15.948125 -1.7875 16.95875 -2 18 C-2.66 18.33 -3.32 18.66 -4 19 C-3.855625 18.05125 -3.71125 17.1025 -3.5625 16.125 C-2.9761439 12.14266481 -2.66779744 8.15046232 -2.37890625 4.13671875 C-2 2 -2 2 0 0 Z " fill="#EED8D3" transform="translate(44,30)"/>
<path d="M0 0 C5.33790195 -0.43753295 5.33790195 -0.43753295 8 0 C9.875 2.375 9.875 2.375 11 5 C11.66 5.66 12.32 6.32 13 7 C11.68 7 10.36 7 9 7 C9 6.01 9 5.02 9 4 C6.36 3.34 3.72 2.68 1 2 C1 2.66 1 3.32 1 4 C1.66 4.33 2.32 4.66 3 5 C2.01 5 1.02 5 0 5 C0 3.35 0 1.7 0 0 Z " fill="#C63238" transform="translate(6,38)"/>
<path d="M0 0 C2.475 0.99 2.475 0.99 5 2 C5.33 1.34 5.66 0.68 6 0 C6 1.65 6 3.3 6 5 C5.34 5 4.68 5 4 5 C4 5.99 4 6.98 4 8 C3.34 8 2.68 8 2 8 C1.71125 7.38125 1.4225 6.7625 1.125 6.125 C0.06279958 3.86674235 0.06279958 3.86674235 -2 2 C-1.34 1.34 -0.68 0.68 0 0 Z " fill="#BB1F25" transform="translate(30,22)"/>
<path d="M0 0 C-0.66 1.32 -1.32 2.64 -2 4 C-4.97 4 -7.94 4 -11 4 C-10.34 3.67 -9.68 3.34 -9 3 C-9 2.34 -9 1.68 -9 1 C-5.8035914 -0.06546953 -3.34252724 -0.07427838 0 0 Z " fill="#CD4246" transform="translate(35,50)"/>
<path d="M0 0 C0.66 0.99 1.32 1.98 2 3 C0.11821903 5.4044979 -0.99224715 5.99790027 -4 6.8125 C-7 7 -7 7 -10 5 C-8.906875 4.731875 -7.81375 4.46375 -6.6875 4.1875 C-3.38307337 3.12336261 -2.05039578 2.65345336 0 0 Z " fill="#1D945A" transform="translate(59,41)"/>
<path d="M0 0 C1.5 1.25 1.5 1.25 3 3 C3 4.32 3 5.64 3 7 C0.03 7 -2.94 7 -6 7 C-6.33 6.34 -6.66 5.68 -7 5 C-5.02 5 -3.04 5 -1 5 C-0.67 3.35 -0.34 1.7 0 0 Z " fill="#C7353B" transform="translate(66,24)"/>
<path d="M0 0 C0.33 0 0.66 0 1 0 C1 1.65 1 3.3 1 5 C1.99 5 2.98 5 4 5 C4.66 7.64 5.32 10.28 6 13 C5.34 13 4.68 13 4 13 C1.04952165 8.38987758 -0.5497272 5.63470383 0 0 Z " fill="#D67B80" transform="translate(5,38)"/>
<path d="M0 0 C1.98 0.99 1.98 0.99 4 2 C4 2.99 4 3.98 4 5 C4.66 5 5.32 5 6 5 C6 7.97 6 10.94 6 14 C5.67 14 5.34 14 5 14 C4.34 10.7 3.68 7.4 3 4 C2.01 3.67 1.02 3.34 0 3 C0 2.01 0 1.02 0 0 Z " fill="#A73438" transform="translate(28,25)"/>
<path d="M0 0 C2.475 0.495 2.475 0.495 5 1 C4.67 2.32 4.34 3.64 4 5 C3.34 5 2.68 5 2 5 C2 5.66 2 6.32 2 7 C1.34 7 0.68 7 0 7 C0 4.69 0 2.38 0 0 Z M2 1 C3 3 3 3 3 3 Z " fill="#939393" transform="translate(70,7)"/>
<path d="M0 0 C0.65234375 1.734375 0.65234375 1.734375 1 4 C0.00390625 6.140625 0.00390625 6.140625 -1.4375 8.25 C-1.91058594 8.95640625 -2.38367187 9.6628125 -2.87109375 10.390625 C-3.24363281 10.92171875 -3.61617187 11.4528125 -4 12 C-4.33 10.68 -4.66 9.36 -5 8 C-4.01 7.67 -3.02 7.34 -2 7 C-1.855625 6.030625 -1.71125 5.06125 -1.5625 4.0625 C-1 1 -1 1 0 0 Z " fill="#C94D54" transform="translate(41,38)"/>
<path d="M0 0 C6.09781001 -0.22084624 11.21642935 -0.01167675 17 2 C15.25 3.125 15.25 3.125 13 4 C11.66216247 3.34241884 10.32945756 2.67436253 9 2 C6.64435404 1.55188863 6.64435404 1.55188863 4.25 1.375 C3.45078125 1.30023437 2.6515625 1.22546875 1.828125 1.1484375 C1.22484375 1.09945313 0.6215625 1.05046875 0 1 C0 0.67 0 0.34 0 0 Z " fill="#C75C64" transform="translate(18,17)"/>
<path d="M0 0 C0 0.99 0 1.98 0 3 C-3.3 3 -6.6 3 -10 3 C-10 2.34 -10 1.68 -10 1 C-2.25 0 -2.25 0 0 0 Z " fill="#CD4249" transform="translate(29,44)"/>
<path d="M0 0 C0 0.99 0 1.98 0 3 C-2.5 5.1875 -2.5 5.1875 -5 7 C-7 6 -7 6 -8 4 C-6.576875 3.566875 -6.576875 3.566875 -5.125 3.125 C-1.94788422 2.23174891 -1.94788422 2.23174891 0 0 Z " fill="#72C49C" transform="translate(67,46)"/>
<path d="M0 0 C4.25472632 -0.12156361 8.14497757 0.07248878 12 2 C11 3 11 3 7.125 3.25 C3.29674306 3.2225573 3.29674306 3.2225573 1 1.5 C0.67 1.005 0.34 0.51 0 0 Z " fill="#FCD5D5" transform="translate(16,42)"/>
<path d="M0 0 C0.33 0 0.66 0 1 0 C1 3 1 6 1 9 C0.01 9 -0.98 9 -2 9 C-2 5.61976483 -1.12544378 3.16531063 0 0 Z " fill="#D2D0D1" transform="translate(69,7)"/>
<path d="M0 0 C1.65 0 3.3 0 5 0 C5.33 1.32 5.66 2.64 6 4 C3.83125748 3.49396008 2.00032373 3.00016187 0 2 C0 1.34 0 0.68 0 0 Z " fill="#EE1E28" transform="translate(7,40)"/>
<path d="M0 0 C0 0.66 0 1.32 0 2 C-2.31 2.66 -4.62 3.32 -7 4 C-7.66 3.01 -8.32 2.02 -9 1 C-2.25 0 -2.25 0 0 0 Z " fill="#939294" transform="translate(78,14)"/>
<path d="M0 0 C0.33 0.66 0.66 1.32 1 2 C2.32 1.67 3.64 1.34 5 1 C5 2.32 5 3.64 5 5 C3.68 5 2.36 5 1 5 C0.67 3.35 0.34 1.7 0 0 Z " fill="#D12D32" transform="translate(9,45)"/>
<path d="M0 0 C4.875 2.75 4.875 2.75 6 5 C4.35 5 2.7 5 1 5 C1 4.01 1 3.02 1 2 C0.34 1.67 -0.32 1.34 -1 1 C-0.67 0.67 -0.34 0.34 0 0 Z " fill="#CC343B" transform="translate(60,19)"/>
</svg>
